<svg xmlns="http://www.w3.org/2000/svg" viewBox="0 0 64 64" fill="none">
  <rect width="64" height="64" rx="12" fill="#050506"/>
  <path stroke="#00f0ff" stroke-width="1.2" stroke-linecap="square" d="M6 22h8M50 22h8M6 42h8M50 42h8M14 12v8M50 12v8M14 44v8M50 44v8"/>
  <circle cx="14" cy="22" r="1.6" fill="#fcee0a"/>
  <circle cx="50" cy="22" r="1.6" fill="#fcee0a"/>
  <circle cx="14" cy="42" r="1.6" fill="#ff2a6d"/>
  <circle cx="50" cy="42" r="1.6" fill="#ff2a6d"/>
  <path stroke="#00f0ff" stroke-width="2.2" stroke-linecap="round" d="M32 8v11M26.5 13.5h11"/>
  <circle cx="32" cy="21" r="2.6" fill="#fcee0a"/>
  <path fill="#fcee0a" d="M21 27h22l-2.8 7H23.8L21 27zm3.8 9h14.4l1.7 11H23.1l1.7-11zM18 51h28v3.2H18V51z"/>
  <path stroke="#ff2a6d" stroke-width="1.4" stroke-linecap="round" d="M18 30c4-6 8-8 14-8s10 2 14 8"/>
  <path stroke="#00f0ff" stroke-width="1" d="M24 35.5h16M25.5 45.5h13"/>
</svg>
